<?xml version="1.0" encoding="UTF-8" standalone="no"?>
<svg width="46px" height="46px" viewBox="0 0 46 46" version="1.1" xmlns="http://www.w3.org/2000/svg" xmlns:xlink="http://www.w3.org/1999/xlink">
    <!-- Generator: Sketch 39.1 (31720) - http://www.bohemiancoding.com/sketch -->
    <title>JG-022-1@2x</title>
    <desc>Created with Sketch.</desc>
    <defs></defs>
    <g id="扁平彩色" stroke="none" stroke-width="1" fill="none" fill-rule="evenodd">
        <g id="九宫格" transform="translate(-642.000000, -680.000000)">
            <g id="基金公司-copy-2" transform="translate(643.000000, 681.000000)">
                <path d="M4.01563252,11.0795775 L22.1542969,-5.55111512e-17 L40.2695312,11.5869141 L39.692824,11.5869141 C39.885517,11.8390703 40,12.1551453 40,12.5 C40,13.3284271 39.3262109,14 38.5037302,14 L4.49626982,14 C3.66990282,14 3,13.3342028 3,12.5 C3,12.1564176 3.11589829,11.8398158 3.31023473,11.5869141 L3.18505859,11.5869141 L3.46123872,11.4182159 C3.61766313,11.2678 3.8064181,11.1510416 4.0156321,11.0795776 Z M22,11 C23.6568542,11 25,9.65685425 25,8 C25,6.34314575 23.6568542,5 22,5 C20.3431458,5 19,6.34314575 19,8 C19,9.65685425 20.3431458,11 22,11 Z" id="Combined-Shape" stroke="#C2C2C2" stroke-width="2"></path>
                <path d="M39,30 L39,18 L40,18 L40,16 L33,16 L33,18 L34,18 L34,30 L33,30 L33,32 L40,32 L40,30 L39,30 Z M19,30 L19,18 L20,18 L20,16 L13,16 L13,18 L14,18 L14,30 L13,30 L13,32 L20,32 L20,30 L19,30 Z M29,30 L29,18 L30,18 L30,16 L23,16 L23,18 L24,18 L24,30 L23,30 L23,32 L30,32 L30,30 L29,30 Z M9,30 L9,18 L10,18 L10,16 L3,16 L3,18 L4,18 L4,30 L3,30 L3,32 L10,32 L10,30 L9,30 Z" id="Combined-Shape" fill="#C2C2C2"></path>
                <rect id="Rectangle-36" stroke="#C2C2C2" stroke-width="2" x="2" y="34" width="40" height="3"></rect>
                <rect id="Rectangle-36-Copy" stroke="#C2C2C2" stroke-width="2" x="0" y="40" width="44" height="3"></rect>
            </g>
        </g>
    </g>
</svg>