<?xml version="1.0" encoding="UTF-8" standalone="no"?>
<svg width="46px" height="46px" viewBox="0 0 46 46" version="1.1" xmlns="http://www.w3.org/2000/svg" xmlns:xlink="http://www.w3.org/1999/xlink">
    <!-- Generator: Sketch 3.8.3 (29802) - http://www.bohemiancoding.com/sketch -->
    <title>BT-002-2@2x</title>
    <desc>Created with Sketch.</desc>
    <defs>
        <path d="M45.9948028,42 C45.9948028,44.209139 44.2102159,46 42,46 L3.99480279,46 C1.78853413,46 0,44.2108635 0,41.9982716 L0,4.00172845 C0,1.79163485 1.78458691,0 3.99480279,0 L36.0051972,0.0842285156 C38.2114659,0.0842285156 40,1.87338042 40,4.08012011 L40,38" id="path-1"></path>
        <mask id="mask-2" maskContentUnits="userSpaceOnUse" maskUnits="objectBoundingBox" x="0" y="0" width="45.9948028" height="46" fill="white">
            <use xlink:href="#path-1"></use>
        </mask>
    </defs>
    <g id="扁平彩色" stroke="none" stroke-width="1" fill="none" fill-rule="evenodd">
        <g id="状态栏" transform="translate(-455.000000, -141.000000)">
            <g id="资讯-copy" transform="translate(455.000000, 141.000000)">
                <use id="Rectangle-122" stroke="#FF4400" mask="url(#mask-2)" stroke-width="4" xlink:href="#path-1"></use>
                <path d="M0,3.99344981 C0,1.78792838 1.79642476,0 4.00002553,0 L35.9999745,0 C38.2091276,0 40,1.79182266 40,3.99344981 L40,41.0065502 C40,43.2120716 38.2035752,45 35.9999745,45 L4.00002553,45 C1.79087243,45 0,43.2081773 0,41.0065502 L0,3.99344981 Z M11,11 C11,10.4477153 11.4449463,10 11.9933977,10 L28.0066023,10 C28.5552407,10 29,10.4438648 29,11 C29,11.5522847 28.5550537,12 28.0066023,12 L11.9933977,12 C11.4447593,12 11,11.5561352 11,11 Z M6,19 C6,18.4477153 6.43981314,18 6.99653482,18 L33.0034652,18 C33.5538362,18 34,18.4438648 34,19 C34,19.5522847 33.5601869,20 33.0034652,20 L6.99653482,20 C6.44616384,20 6,19.5561352 6,19 Z M6,27 C6,26.4477153 6.43981314,26 6.99653482,26 L33.0034652,26 C33.5538362,26 34,26.4438648 34,27 C34,27.5522847 33.5601869,28 33.0034652,28 L6.99653482,28 C6.44616384,28 6,27.5561352 6,27 Z M6,35 C6,34.4477153 6.43981314,34 6.99653482,34 L33.0034652,34 C33.5538362,34 34,34.4438648 34,35 C34,35.5522847 33.5601869,36 33.0034652,36 L6.99653482,36 C6.44616384,36 6,35.5561352 6,35 Z" id="Combined-Shape" fill="#FF4400"></path>
                <polygon id="Path-125" fill="#FF4400" points="46 42 46 5 44 5 44 42"></polygon>
            </g>
        </g>
    </g>
</svg>