<?xml version="1.0" encoding="UTF-8" standalone="no"?>
<svg width="46px" height="46px" viewBox="0 0 46 46" version="1.1" xmlns="http://www.w3.org/2000/svg" xmlns:xlink="http://www.w3.org/1999/xlink">
    <!-- Generator: Sketch 3.8.3 (29802) - http://www.bohemiancoding.com/sketch -->
    <title>BT-005-1@2x</title>
    <desc>Created with Sketch.</desc>
    <defs></defs>
    <g id="扁平彩色" stroke="none" stroke-width="1" fill="none" fill-rule="evenodd">
        <g id="状态栏" transform="translate(-545.000000, -273.000000)">
            <g id="我" transform="translate(551.000000, 274.000000)">
                <path d="M26.6129032,44 L22.2069252,32.2464658 C28.5071631,29.9050948 33,23.7985654 33,16.6341463 C33,7.44736099 25.6126984,0 16.5,0 C7.38730163,0 0,7.44736099 0,16.6341463 C0,23.9899172 4.73603694,30.2305342 11.3017037,32.425961 L6.38709677,44" id="Combined-Shape" stroke="#9B9B9B" stroke-width="2" stroke-linecap="round" stroke-linejoin="round"></path>
                <path d="M9.20936358,8.1810883 C9.23576046,8.38795506 10.8027517,7.76761564 11.6371001,7.36588196 C13.0068912,6.71319515 14.5487795,5.99998742 15.5440972,4.75722165 C16.0810925,4.08836114 16.7205699,2.89437732 16.6007487,2.00247636 C16.5156059,1.44265786 16.3530839,1.27987745 16.3530839,1.28926863 C16.0557308,2.30195056 15.5440972,2.68751056 14.4980561,3.23819875 C13.4494271,3.79566946 12.7856232,3.89766807 12.1474398,4.11366515 C11.5423819,4.31114073 11.2452876,4.36931386 10.5217026,4.5156597 C9.82347922,4.67139672 9.39698846,4.46452996 9.11593933,5.3658221 C8.85999311,6.19041962 9.09057762,7.34057795 9.20936358,8.1810883 Z M16.8510531,1 C17.483543,3.07974194 15.775719,5.272 14.4859257,6.36567742 C13.8433078,6.91019355 13.1275156,7.25058065 12.6856842,7.5883871 C12.0352172,8.08258065 12.0104037,8.56490323 12.2190393,9.45651613 C12.3023416,9.77832258 12.9844585,11.4 12.9844585,11.4 C12.9844585,11.4 13.7182278,11.0941935 14.601131,10.3068387 C15.4847939,9.51612903 15.7845809,9.18529032 16.3259193,8.45470968 C16.8680174,7.73316129 17.2164186,7.08051613 17.4496144,6.58658065 C17.6752143,6.09445161 18.025641,4.85367742 18.025641,3.89548387 C18.025641,2.78322581 17.5838096,1.64593548 16.8510531,1 Z M17.8895544,1.57777778 C17.8895544,1.57777778 18.0812234,1.91115205 18.4047908,2.64057079 C19.3177402,4.65719908 18.3374545,7.15828623 17.2852929,8.83477915 C16.6623689,9.835162 15.3012673,10.5807034 15.9322616,11.9810313 C16.0971977,12.3422301 16.420513,12.8030251 16.5960413,12.9998772 C16.7609775,13.1964692 17.540263,14 17.540263,14 C18.4375763,12.9905157 19.3671706,10.4766864 19.6488735,9.09170097 C19.8813982,7.96181704 20.0723105,6.59087386 19.9731975,5.47035145 C19.864501,4.349569 19.7721973,4.05078036 19.3828067,3.29145675 C19.1850851,2.90685414 18.9180096,2.54565534 18.6955727,2.28873351 C18.4126089,1.9550992 18.2229575,1.81155583 17.8895544,1.57777778 Z" id="Combined-Shape" fill="#9B9B9B"></path>
                <path d="M8,19.0448454 C9.97318493,21.8881862 11.6267997,25.3468995 17,25.3468995 C22.3732003,25.3468995 24.0303594,21.8685941 26,19" id="Oval-57" stroke="#9B9B9B" stroke-width="2" stroke-linecap="round" stroke-linejoin="round"></path>
            </g>
        </g>
    </g>
</svg>