<?xml version="1.0" encoding="utf-8"?>
<!-- Generator: Adobe Illustrator 19.0.0, SVG Export Plug-In . SVG Version: 6.00 Build 0)  -->
<svg version="1.1" id="图层_1" xmlns="http://www.w3.org/2000/svg" xmlns:xlink="http://www.w3.org/1999/xlink" x="0px" y="0px"
	 viewBox="0 0 512 512" enable-background="new 0 0 512 512" xml:space="preserve">
<path id="XMLID_1_" d="M437.252,13.667c0,0-361.999,0.005-362.239,0.014C39.85,14.063,11.345,42.212,11.345,76.756
	c0,15.025,5.377,29.359,15.219,40.736c0.713,1.122,1.566,2.181,2.56,3.156l142.846,139.931v116.644c0,0.014,0,0.029,0,0.042v0.051
	c0,0.316,0.078,0.612,0.095,0.924c0.047,0.821,0.09,1.642,0.252,2.452c0.187,0.946,0.492,1.845,0.827,2.732
	c0.065,0.171,0.095,0.35,0.165,0.519c0.848,2.049,2.086,3.892,3.609,5.478l-0.005,0.005l0.057,0.056
	c0.215,0.222,0.434,0.436,0.66,0.647l49.911,48.903c0.067,0.068,0.111,0.148,0.179,0.216c7.06,6.916,18.518,6.916,25.578,0
	c7.06-6.926,7.06-18.14,0-25.057c-0.028-0.027-0.062-0.045-0.09-0.073l0.039-0.038l-45.105-44.184V253.231
	c0-4.691-1.901-9.192-5.283-12.514L57.1,97.941c-0.519-0.724-1.098-1.418-1.74-2.077c-5.036-5.155-7.831-11.949-7.831-19.107
	c0-15.231,12.661-27.634,28.825-27.644c0,0,360.902,0,360.909,0c15.559,0,28.22,12.392,28.22,27.634
	c0,7.117-2.754,13.862-7.738,19.027c-0.38,0.393-0.739,0.799-1.076,1.215L305.351,245.218c-3.412,3.332-5.324,7.842-5.324,12.533
	v225.863c0,9.775,8.119,17.718,18.097,17.718c9.999,0,18.097-7.943,18.097-17.708V265.1l147.584-144.582
	c0.697-0.684,1.326-1.408,1.886-2.167c10.325-11.517,15.975-26.198,15.975-41.604C501.667,41.965,472.779,13.667,437.252,13.667z"/>
</svg>
