<?xml version="1.0" encoding="UTF-8" standalone="no"?>
<svg width="46px" height="46px" viewBox="0 0 46 46" version="1.1" xmlns="http://www.w3.org/2000/svg" xmlns:xlink="http://www.w3.org/1999/xlink">
    <!-- Generator: Sketch 39.1 (31720) - http://www.bohemiancoding.com/sketch -->
    <title>JG-017-1@2x</title>
    <desc>Created with Sketch.</desc>
    <defs></defs>
    <g id="扁平彩色" stroke="none" stroke-width="1" fill="none" fill-rule="evenodd">
        <g id="九宫格" transform="translate(-182.000000, -682.000000)">
            <g id="基金吧-copy" transform="translate(183.000000, 683.000000)">
                <path d="M19.6956522,31.5652174 L41.1304348,31.5652174 C42.76201,31.5652174 44,30.3329855 44,28.6956522 L44,2.86956522 C44,1.2322319 42.76201,-2.84217094e-14 41.1304348,-2.84217094e-14 L2.86956522,-2.84217094e-14 C1.23799004,-2.84217094e-14 2.48689958e-14,1.2322319 2.48689958e-14,2.86956522 L2.48689958e-14,28.6956522 C2.48689958e-14,30.3329855 1.23799004,31.5652174 2.86956522,31.5652174 L9.46547315,31.5652174 L5.7826087,42 L19.6956522,31.5652174 Z" id="Combined-Shape" stroke="#C2C2C2" stroke-width="2"></path>
                <path d="M6.69565217,8.60869565 L36.3478261,8.60869565 C36.7073462,8.60869565 37.3043478,8.9501814 37.3043478,9.24637681 L37.3043478,9.88405797 C37.3043478,10.1802534 36.7073462,10.5217391 36.3478261,10.5217391 L6.69565217,10.5217391 C6.33613203,10.5217391 5.73913043,10.1802534 5.73913043,9.88405797 L5.73913043,9.24637681 C5.73913043,8.9501814 6.33613203,8.60869565 6.69565217,8.60869565" id="Fill-3" fill="#C2C2C2"></path>
                <path d="M6.69565217,17.2173913 L26.7826087,17.2173913 C27.1413093,17.2173913 27.7391304,17.5588771 27.7391304,17.8550725 L27.7391304,18.4927536 C27.7391304,18.788949 27.1413093,19.1304348 26.7826087,19.1304348 L6.69565217,19.1304348 C6.33695161,19.1304348 5.73913043,18.788949 5.73913043,18.4927536 L5.73913043,17.8550725 C5.73913043,17.5588771 6.33695161,17.2173913 6.69565217,17.2173913" id="Fill-4" fill="#C2C2C2"></path>
            </g>
        </g>
    </g>
</svg>