<?xml version="1.0" encoding="UTF-8" standalone="no"?>
<svg width="48px" height="48px" viewBox="0 0 48 48" version="1.1" xmlns="http://www.w3.org/2000/svg" xmlns:xlink="http://www.w3.org/1999/xlink">
    <!-- Generator: Sketch 39.1 (31720) - http://www.bohemiancoding.com/sketch -->
    <title>JG-032@2x</title>
    <desc>Created with Sketch.</desc>
    <defs></defs>
    <g id="扁平彩色" stroke="none" stroke-width="1" fill="none" fill-rule="evenodd">
        <g id="九宫格" transform="translate(-361.000000, -800.000000)">
            <g id="撤单" transform="translate(362.000000, 801.000000)">
                <rect id="Rectangle-15" fill="#FF9F48" x="0" y="0" width="46" height="46" rx="23"></rect>
                <g id="Group-2" transform="translate(13.000000, 12.000000)" fill="#FFFFFF">
                    <path d="M12.0000348,3.5 C15.0404778,3.5 17.5000348,5.96034221 17.5000348,9.00820492 L17.5000348,11.0230146 C17.5000348,14.0625262 15.0323115,16.5312195 12.0000174,16.5312195 L5,16.5312195 C4.17157288,16.5312195 3.5,17.2027924 3.5,18.0312195 C3.5,18.8596467 4.17157288,19.5312195 5,19.5312195 L12.0000174,19.5312195 C16.6894297,19.5312195 20.5000348,15.7191166 20.5000348,11.0230146 L20.5000348,9.00820492 C20.5000348,4.30370229 16.6975465,0.5 12.0000348,0.5 L5.00003481,0.5 C4.17160768,0.5 3.50003481,1.17157288 3.50003481,2 C3.50003481,2.82842712 4.17160768,3.5 5.00003481,3.5 L12.0000348,3.5 Z" id="Path-4"></path>
                    <path d="M3.23371889,14.5419394 C3.36577543,14.0035024 3.78891787,13.8831024 4.18428753,14.2784721 L8.96346395,19.0576485 C9.35639197,19.4505765 9.2331138,19.8774653 8.69999662,20.0082171 L2.43233513,21.5454179 C1.89389813,21.6774744 1.56576641,21.3427181 1.69651822,20.809601 L3.23371889,14.5419394 Z" id="Rectangle-8" transform="translate(5.430917, 17.809793) rotate(45.000000) translate(-5.430917, -17.809793) "></path>
                </g>
            </g>
        </g>
    </g>
</svg>