<?xml version="1.0" encoding="UTF-8" standalone="no"?>
<svg width="48px" height="48px" viewBox="0 0 48 48" version="1.1" xmlns="http://www.w3.org/2000/svg" xmlns:xlink="http://www.w3.org/1999/xlink">
    <!-- Generator: Sketch 39.1 (31720) - http://www.bohemiancoding.com/sketch -->
    <title>JG-029@2x</title>
    <desc>Created with Sketch.</desc>
    <defs></defs>
    <g id="扁平彩色" stroke="none" stroke-width="1" fill="none" fill-rule="evenodd">
        <g id="九宫格" transform="translate(-90.000000, -800.000000)">
            <g id="解散" transform="translate(91.000000, 801.000000)">
                <rect id="Rectangle-15" fill="#FF9F48" x="0" y="0" width="46" height="46" rx="23"></rect>
                <g id="Group-9" transform="translate(13.000000, 12.000000)" fill="#FFFFFF">
                    <path d="M14.9831553,3.6461703 L9.2816281,9.34769748 C8.90612397,9.7232016 8.90612397,10.3320141 9.2816281,10.7075182 C9.65713222,11.0830223 10.2659447,11.0830223 10.6414488,10.7075182 L16.342976,5.00599103 L18.1926093,6.85562434 C18.5802056,7.24322064 18.9615318,7.11804683 19.0396318,6.57134734 L19.855708,0.858813653 C19.9348902,0.304538484 19.5539329,-0.0677608494 19.0072334,0.0103390786 L13.2946997,0.826415319 C12.7404246,0.905597486 12.6207251,1.28374011 13.0104227,1.67343775 L14.9831553,3.6461703 Z" id="Combined-Shape"></path>
                    <path d="M15.5216168,13.1846318 L9.82008963,18.886159 C9.44458551,19.2616631 9.44458551,19.8704756 9.82008963,20.2459797 C10.1955938,20.6214839 10.8044062,20.6214839 11.1799104,20.2459797 L16.8814375,14.5444526 L18.7310709,16.3940859 C19.1186672,16.7816822 19.4999934,16.6565084 19.5780933,16.1098089 L20.3941695,10.3972752 C20.4733517,9.84300002 20.0923945,9.47070069 19.545695,9.54880062 L13.8331613,10.3648769 C13.2788861,10.444059 13.1591866,10.8222016 13.5488843,11.2118993 L15.5216168,13.1846318 Z" id="Combined-Shape-Copy-3" transform="translate(14.971523, 15.033035) scale(1, -1) translate(-14.971523, -15.033035) "></path>
                    <path d="M5.98315528,3.6461703 L0.281628095,9.34769748 C-0.0938760317,9.7232016 -0.0938760317,10.3320141 0.281628095,10.7075182 C0.657132222,11.0830223 1.2659447,11.0830223 1.64144883,10.7075182 L7.34297601,5.00599103 L9.19260932,6.85562434 C9.58020562,7.24322064 9.96153182,7.11804683 10.0396318,6.57134734 L10.855708,0.858813653 C10.9348902,0.304538484 10.5539329,-0.0677608494 10.0072334,0.0103390786 L4.29469973,0.826415319 C3.74042456,0.905597486 3.62072509,1.28374011 4.01042273,1.67343775 L5.98315528,3.6461703 Z" id="Combined-Shape-Copy-2" transform="translate(5.433062, 5.494573) scale(-1, 1) translate(-5.433062, -5.494573) "></path>
                    <path d="M5.98868968,13.1846318 L0.287162494,18.886159 C-0.0883416331,19.2616631 -0.0883416331,19.8704756 0.287162494,20.2459797 C0.66266662,20.6214839 1.2714791,20.6214839 1.64698323,20.2459797 L7.34851041,14.5444526 L9.19814372,16.3940859 C9.58574002,16.7816822 9.96706622,16.6565084 10.0451662,16.1098089 L10.8612424,10.3972752 C10.9404246,9.84300002 10.5594673,9.47070069 10.0127678,9.54880062 L4.30023413,10.3648769 C3.74595896,10.444059 3.62625949,10.8222016 4.01595713,11.2118993 L5.98868968,13.1846318 Z" id="Combined-Shape-Copy-4" transform="translate(5.438596, 15.033035) scale(-1, -1) translate(-5.438596, -15.033035) "></path>
                </g>
            </g>
        </g>
    </g>
</svg>