<?xml version="1.0" encoding="UTF-8" standalone="no"?>
<svg width="46px" height="46px" viewBox="0 0 46 46" version="1.1" xmlns="http://www.w3.org/2000/svg" xmlns:xlink="http://www.w3.org/1999/xlink">
    <!-- Generator: Sketch 39.1 (31720) - http://www.bohemiancoding.com/sketch -->
    <title>JG-018-1@2x</title>
    <desc>Created with Sketch.</desc>
    <defs>
        <path d="M2.86956522,44 C1.24543968,44 0,42.7733018 0,41.1304348 L0,2.86956522 C0,1.22669824 1.24543968,0 2.86956522,0 L41.1304348,0 C42.7545603,0 44,1.22669824 44,2.86956522 L44,41.1304348 C44,42.7733018 42.7545603,44 41.1304348,44 L2.86956522,44 Z" id="path-1"></path>
    </defs>
    <g id="扁平彩色" stroke="none" stroke-width="1" fill="none" fill-rule="evenodd">
        <g id="九宫格" transform="translate(-370.000000, -682.000000)">
            <g id="基金净值" transform="translate(371.000000, 684.000000)">
                <path d="M41.1304348,43.0434783 L2.86956522,43.0434783 C1.24543968,43.0434783 0,41.81678 0,40.173913 L0,2.86956522 C0,1.22669824 1.24543968,0 2.86956522,0 L41.1304348,0 C42.7545603,0 44,1.22669824 44,2.86956522 L44,40.173913 C44,41.81678 42.7545603,43.0434783 41.1304348,43.0434783" id="Fill-1" stroke="#C2C2C2" stroke-width="2"></path>
                <g id="Group-4">
                    <mask id="mask-2" fill="white">
                        <use xlink:href="#path-1"></use>
                    </mask>
                    <g id="Clip-3"></g>
                    <path d="M-1.91304348,35.3913043 C-1.91304348,35.561823 1.03786017,31.8952624 6.69565217,31.5652174 C19.5575751,32.3821991 16.1150057,18.9405658 30.6086957,19.1304348 C41.4398843,19.9598624 40.5737891,9.56521739 44,9.56521739 L45.9130435,9.56521739 L45.9130435,47.826087 L-1.91304348,47.826087 L-1.91304348,35.3913043" id="Fill-2" stroke="#C2C2C2" mask="url(#mask-2)"></path>
                </g>
                <polygon id="Fill-5" fill="#C2C2C2" points="26.7826087 0 27.7391304 0 27.7391304 44 26.7826087 44"></polygon>
                <path d="M0,36.3478261 C0.961294922,35.4891779 3.2676647,33.8569322 6.69565217,33.4782609 C13.9719881,34.1129885 16.8946199,30.5408674 19.1304348,27.7391304 C22.1688263,24.0706958 24.4890343,21.2142657 31.5652174,21.0434783 C39.2341175,21.8041904 41.7692792,17.0277905 43.0434783,14.3478261 C43.6097622,13.5633397 43.8016522,13.2032323 44,12.4347826 L44,8.60869565 C42.3606324,9.12080824 41.4537678,10.7666259 40.173913,12.4347826 C39.0532981,15.2896839 37.3216757,18.5442228 31.5652174,18.173913 C22.9862037,17.9959185 19.7840399,21.9245278 17.2173913,25.826087 C14.4369522,28.4851787 12.4617772,30.9272138 6.69565217,30.6086957 C3.96234327,30.7136828 1.6541284,31.5460919 0,32.5217391 L0,36.3478261" id="Fill-6" fill="#C2C2C2"></path>
                <path d="M33.2994303,20.7648116 C33.2994303,24.3077283 30.4231304,27.1805616 26.8770701,27.1805616 C23.3300923,27.1805616 20.4547098,24.3077283 20.4547098,20.7648116 C20.4547098,17.2209783 23.3300923,14.3472283 26.8770701,14.3472283 C30.4231304,14.3472283 33.2994303,17.2209783 33.2994303,20.7648116" id="Fill-7" stroke="#C2C2C2" fill="#FFFFFF"></path>
                <path d="M26.8770701,28.7847283 C22.4502289,28.7847283 18.8491198,25.1877283 18.8491198,20.7648116 C18.8491198,16.3418949 22.4502289,12.7430616 26.8770701,12.7430616 C31.3039113,12.7430616 34.9050204,16.3418949 34.9050204,20.7648116 C34.9050204,25.1877283 31.3039113,28.7847283 26.8770701,28.7847283 L26.8770701,28.7847283 Z M26.8770701,15.9513949 C24.2209654,15.9513949 22.0602999,18.1110616 22.0602999,20.7648116 C22.0602999,23.4176449 24.2209654,25.5763949 26.8770701,25.5763949 C29.5331748,25.5763949 31.6938403,23.4176449 31.6938403,20.7648116 C31.6938403,18.1110616 29.5331748,15.9513949 26.8770701,15.9513949 L26.8770701,15.9513949 Z" id="Fill-8" fill="#C2C2C2"></path>
            </g>
        </g>
    </g>
</svg>