<?xml version="1.0" encoding="UTF-8" standalone="no"?>
<svg width="46px" height="46px" viewBox="0 0 46 46" version="1.1" xmlns="http://www.w3.org/2000/svg" xmlns:xlink="http://www.w3.org/1999/xlink">
    <!-- Generator: Sketch 3.8.3 (29802) - http://www.bohemiancoding.com/sketch -->
    <title>JG-004-1@2x</title>
    <desc>Created with Sketch.</desc>
    <defs>
        <path d="M39,0 C40.6846074,0 42,1.30202327 42,2.89338505 L42,43.1066149 C42,44.6979767 40.6846074,46 39.0769052,46 L2.92309477,46 C1.31539265,46 0,44.6979767 0,43.1066149 L0,13.4417025 L14.3414634,0 L39,0 Z" id="path-1"></path>
        <mask id="mask-2" maskContentUnits="userSpaceOnUse" maskUnits="objectBoundingBox" x="0" y="0" width="42" height="46" fill="white">
            <use xlink:href="#path-1"></use>
        </mask>
    </defs>
    <g id="扁平彩色" stroke="none" stroke-width="1" fill="none" fill-rule="evenodd">
        <g id="九宫格" transform="translate(-90.000000, -682.000000)">
            <g id="资讯信息-copy" transform="translate(92.000000, 682.000000)">
                <use id="Fill-1" stroke="#C2C2C2" mask="url(#mask-2)" stroke-width="4" xlink:href="#path-1"></use>
                <path d="M14.3414634,0 L14.3414634,10.5555336 C14.3414634,12.0586446 13.013775,13.2888889 11.3916069,13.2888889 L0,13.2888889" id="Fill-2" fill="#C2C2C2"></path>
                <path d="M9,26 L34,26 C34.3341802,26 35,26.3570078 35,26.6666667 L35,27.3333333 C35,27.6435323 34.3341802,28 34,28 L9,28 C8.66581976,28 8,27.6435323 8,27.3333333 L8,26.6666667 C8,26.3570078 8.66581976,26 9,26" id="Fill-3" fill="#C2C2C2"></path>
                <path d="M9,17 L34,17 C34.3341802,17 35,17.3564677 35,17.6666667 L35,18.3333333 C35,18.6429922 34.3341802,19 34,19 L9,19 C8.66581976,19 8,18.6429922 8,18.3333333 L8,17.6666667 C8,17.3564677 8.66581976,17 9,17" id="Fill-4" fill="#C2C2C2"></path>
                <path d="M21,8 L34,8 C34.3802041,8 35,8.35700783 35,8.66666667 L35,9.33333333 C35,9.64299217 34.3802041,10 34,10 L21,10 C20.620735,10 20,9.64299217 20,9.33333333 L20,8.66666667 C20,8.35700783 20.620735,8 21,8" id="Fill-5" fill="#C2C2C2"></path>
                <path d="M9,35 L34,35 C34.3341802,35 35,35.3570078 35,35.6666667 L35,36.3333333 C35,36.6429922 34.3341802,37 34,37 L9,37 C8.66581976,37 8,36.6429922 8,36.3333333 L8,35.6666667 C8,35.3570078 8.66581976,35 9,35" id="Fill-6" fill="#C2C2C2"></path>
            </g>
        </g>
    </g>
</svg>