<?xml version="1.0" encoding="UTF-8" standalone="no"?>
<svg width="48px" height="48px" viewBox="0 0 48 48" version="1.1" xmlns="http://www.w3.org/2000/svg" xmlns:xlink="http://www.w3.org/1999/xlink">
    <!-- Generator: Sketch 39.1 (31720) - http://www.bohemiancoding.com/sketch -->
    <title>JG-030@2x</title>
    <desc>Created with Sketch.</desc>
    <defs></defs>
    <g id="扁平彩色" stroke="none" stroke-width="1" fill="none" fill-rule="evenodd">
        <g id="九宫格" transform="translate(-181.000000, -800.000000)">
            <g id="调仓／互转" transform="translate(182.000000, 801.000000)">
                <rect id="Rectangle-15" fill="#FF9F48" x="0" y="0" width="46" height="46" rx="23"></rect>
                <path d="M11.0519947,22.0995865 C10.9059739,21.8603268 11.0844438,21.5593227 11.3764856,21.5593227 L12.9015926,21.5593227 L12.9015926,18.7267966 C12.9015926,15.5701122 15.602979,13 18.920898,13 L22.5876446,13 L22.5876446,15.392597 L18.920898,15.392597 C16.9901774,15.392597 15.424509,16.8821815 15.424509,18.7190786 L15.424509,21.5516046 L16.949616,21.5516046 C17.2416578,21.5516046 17.4201278,21.8526088 17.2741069,22.0918685 L14.4915978,26.684111 C14.3455769,26.9233707 13.9805247,26.9233707 13.8345038,26.684111 L11.0519947,22.0995865 L11.0519947,22.0995865 L11.0519947,22.0995865 Z" id="Path" fill="#FFFFFF"></path>
                <path d="M26.6667467,31.4709589 L23,31.4709589 L23,33.8635558 L26.6667467,33.8635558 C29.9846656,33.8635558 32.686052,31.2934436 32.686052,28.1367592 L32.686052,25.3042331 L34.211159,25.3042331 C34.5032008,25.3042331 34.6816708,25.003229 34.5356499,24.7639693 L31.7531408,20.1794448 C31.6071199,19.9401851 31.2420677,19.9401851 31.0960468,20.1794448 L28.3135377,24.7716873 C28.1675169,25.010947 28.3459868,25.3119512 28.6380286,25.3119512 L30.1631356,25.3119512 L30.1631356,28.1444773 C30.1631356,29.9813743 28.5974672,31.4709589 26.6667467,31.4709589 L26.6667467,31.4709589 L26.6667467,31.4709589 Z" id="Path" fill="#FFFFFF"></path>
            </g>
        </g>
    </g>
</svg>