<?xml version="1.0" encoding="UTF-8" standalone="no"?>
<svg width="48px" height="48px" viewBox="0 0 48 48" version="1.1" xmlns="http://www.w3.org/2000/svg" xmlns:xlink="http://www.w3.org/1999/xlink">
    <!-- Generator: Sketch 39.1 (31720) - http://www.bohemiancoding.com/sketch -->
    <title>JG-033@2x</title>
    <desc>Created with Sketch.</desc>
    <defs></defs>
    <g id="扁平彩色" stroke="none" stroke-width="1" fill="none" fill-rule="evenodd">
        <g id="九宫格" transform="translate(-454.000000, -800.000000)">
            <g id="红利再投资" transform="translate(455.000000, 801.000000)">
                <rect id="Rectangle-15" fill="#FF7748" x="0" y="0" width="46" height="46" rx="23"></rect>
                <path d="M25.9819931,31.2245535 L25.9819931,32.6725838 C25.9819931,32.8779016 25.8195317,33.0399945 25.6137474,33.0399945 L20.7182457,33.0399945 C20.5124613,33.0399945 20.35,32.8779016 20.35,32.6725838 L20.35,31.2245535 C20.35,31.0192358 20.5124613,30.8571429 20.7182457,30.8571429 L25.6137474,30.8571429 C25.8195317,30.8679491 25.9819931,31.030042 25.9819931,31.2245535 L25.9819931,31.2245535 L25.9819931,31.2245535 Z" id="Path" fill="#FFFFFF"></path>
                <path d="M25.9819931,28.0816964 L25.9819931,29.5297267 C25.9819931,29.7350444 25.8195317,29.8971374 25.6137474,29.8971374 L20.7182457,29.8971374 C20.5124613,29.8971374 20.35,29.7350444 20.35,29.5297267 L20.35,28.0816964 C20.35,27.8763787 20.5124613,27.7142857 20.7182457,27.7142857 L25.6137474,27.7142857 C25.8195317,27.7142857 25.9819931,27.8763787 25.9819931,28.0816964 L25.9819931,28.0816964 L25.9819931,28.0816964 Z" id="Path" fill="#FFFFFF"></path>
                <path d="M25.9819931,24.9388392 L25.9819931,26.3868696 C25.9819931,26.5921873 25.8195317,26.7542802 25.6137474,26.7542802 L20.7182457,26.7542802 C20.5124613,26.7542802 20.35,26.5921873 20.35,26.3868696 L20.35,24.9388392 C20.35,24.7335215 20.5124613,24.5714286 20.7182457,24.5714286 L25.6137474,24.5714286 C25.8195317,24.5822348 25.9819931,24.7443277 25.9819931,24.9388392 L25.9819931,24.9388392 L25.9819931,24.9388392 Z" id="Path" fill="#FFFFFF"></path>
                <path d="M25.9819931,21.7959821 L25.9819931,23.2440124 C25.9819931,23.4493301 25.8195317,23.6114231 25.6137474,23.6114231 L20.7182457,23.6114231 C20.5124613,23.6114231 20.35,23.4493301 20.35,23.2440124 L20.35,21.7959821 C20.35,21.5906644 20.5124613,21.4285714 20.7182457,21.4285714 L25.6137474,21.4285714 C25.8195317,21.4285714 25.9819931,21.5906644 25.9819931,21.7959821 L25.9819931,21.7959821 L25.9819931,21.7959821 Z" id="Path" fill="#FFFFFF"></path>
                <path d="M25.9819931,18.653125 L25.9819931,20.1011553 C25.9819931,20.306473 25.8195317,20.4685659 25.6137474,20.4685659 L20.7182457,20.4685659 C20.5124613,20.4685659 20.35,20.306473 20.35,20.1011553 L20.35,18.653125 C20.35,18.4478072 20.5124613,18.2857143 20.7182457,18.2857143 L25.6137474,18.2857143 C25.8195317,18.2965205 25.9819931,18.4586134 25.9819931,18.653125 L25.9819931,18.653125 L25.9819931,18.653125 Z" id="Path" fill="#FFFFFF"></path>
                <path d="M25.9711623,15.5102678 L25.9711623,16.9582981 C25.9711623,17.1636159 25.808701,17.3257088 25.6029166,17.3257088 L20.7074149,17.3257088 C20.5124613,17.3257088 20.35,17.1636159 20.35,16.9582981 L20.35,15.5102678 C20.35,15.3049501 20.5124613,15.1428571 20.7182457,15.1428571 L25.6137474,15.1428571 C25.808701,15.1428571 25.9711623,15.3049501 25.9711623,15.5102678 L25.9711623,15.5102678 L25.9711623,15.5102678 Z" id="Path" fill="#FFFFFF"></path>
                <path d="M25.9819931,12.3566045 L25.9819931,13.8046348 C25.9819931,14.0099525 25.8195317,14.1720455 25.6137474,14.1720455 L20.7182457,14.1720455 C20.5124613,14.1720455 20.35,14.0099525 20.35,13.8046348 L20.35,12.3674107 C20.35,12.1620929 20.5124613,12 20.7182457,12 L25.6137474,12 C25.8195317,12 25.9819931,12.1620929 25.9819931,12.3566045 L25.9819931,12.3566045 L25.9819931,12.3566045 Z" id="Path" fill="#FFFFFF"></path>
                <path d="M33.3319931,31.2245535 L33.3319931,32.6725838 C33.3319931,32.8779016 33.1695317,33.0399945 32.9637474,33.0399945 L28.0682457,33.0399945 C27.8624613,33.0399945 27.7,32.8779016 27.7,32.6725838 L27.7,31.2245535 C27.7,31.0192358 27.8624613,30.8571429 28.0682457,30.8571429 L32.9637474,30.8571429 C33.1695317,30.8679491 33.3319931,31.030042 33.3319931,31.2245535 L33.3319931,31.2245535 L33.3319931,31.2245535 Z" id="Path" fill="#FFFFFF"></path>
                <path d="M33.3319931,28.0816964 L33.3319931,29.5297267 C33.3319931,29.7350444 33.1695317,29.8971374 32.9637474,29.8971374 L28.0682457,29.8971374 C27.8624613,29.8971374 27.7,29.7350444 27.7,29.5297267 L27.7,28.0816964 C27.7,27.8763787 27.8624613,27.7142857 28.0682457,27.7142857 L32.9637474,27.7142857 C33.1695317,27.7142857 33.3319931,27.8763787 33.3319931,28.0816964 L33.3319931,28.0816964 L33.3319931,28.0816964 Z" id="Path" fill="#FFFFFF"></path>
                <path d="M33.3319931,24.9388392 L33.3319931,26.3868696 C33.3319931,26.5921873 33.1695317,26.7542802 32.9637474,26.7542802 L28.0682457,26.7542802 C27.8624613,26.7542802 27.7,26.5921873 27.7,26.3868696 L27.7,24.9388392 C27.7,24.7335215 27.8624613,24.5714286 28.0682457,24.5714286 L32.9637474,24.5714286 C33.1695317,24.5822348 33.3319931,24.7443277 33.3319931,24.9388392 L33.3319931,24.9388392 L33.3319931,24.9388392 Z" id="Path" fill="#FFFFFF"></path>
                <path d="M18.6319931,31.2245535 L18.6319931,32.6725838 C18.6319931,32.8779016 18.4695317,33.0399945 18.2637474,33.0399945 L13.3682457,33.0399945 C13.1624613,33.0399945 13,32.8779016 13,32.6725838 L13,31.2245535 C13,31.0192358 13.1624613,30.8571429 13.3682457,30.8571429 L18.2637474,30.8571429 C18.4695317,30.8571429 18.6319931,31.0192358 18.6319931,31.2245535 L18.6319931,31.2245535 L18.6319931,31.2245535 Z" id="Path" fill="#FFFFFF"></path>
                <path d="M18.6319931,29.5297267 C18.6319931,29.7350444 18.4695317,29.8971374 18.2637474,29.8971374 L13.3682457,29.8971374 C13.1624613,29.8971374 13,29.7350444 13,29.5297267 L13,28.0816964 C13,27.8763787 13.1624613,27.7142857 13.3682457,27.7142857 L18.2637474,27.7142857 C18.4695317,27.7142857 18.6319931,27.8763787 18.6319931,28.0816964 L18.6319931,29.5297267 L18.6319931,29.5297267 L18.6319931,29.5297267 Z" id="Path" fill="#FFFFFF"></path>
                <path d="M18.6319931,26.3868696 C18.6319931,26.5921873 18.4695317,26.7542802 18.2637474,26.7542802 L13.3682457,26.7542802 C13.1624613,26.7542802 13,26.5921873 13,26.3868696 L13,24.9388392 C13,24.7335215 13.1624613,24.5714286 13.3682457,24.5714286 L18.2637474,24.5714286 C18.4695317,24.5714286 18.6319931,24.7335215 18.6319931,24.9388392 L18.6319931,26.3868696 L18.6319931,26.3868696 L18.6319931,26.3868696 Z" id="Path" fill="#FFFFFF"></path>
                <path d="M18.6319931,23.2440124 C18.6319931,23.4493301 18.4695317,23.6114231 18.2637474,23.6114231 L13.3682457,23.6114231 C13.1624613,23.6114231 13,23.4493301 13,23.2440124 L13,21.7959821 C13,21.5906644 13.1624613,21.4285714 13.3682457,21.4285714 L18.2637474,21.4285714 C18.4695317,21.4285714 18.6319931,21.5906644 18.6319931,21.7959821 L18.6319931,23.2440124 L18.6319931,23.2440124 L18.6319931,23.2440124 Z" id="Path" fill="#FFFFFF"></path>
                <path d="M18.6319931,20.1011553 C18.6319931,20.306473 18.4695317,20.4685659 18.2637474,20.4685659 L13.3682457,20.4685659 C13.1624613,20.4685659 13,20.306473 13,20.1011553 L13,18.653125 C13,18.4478072 13.1624613,18.2857143 13.3682457,18.2857143 L18.2637474,18.2857143 C18.4695317,18.2857143 18.6319931,18.4478072 18.6319931,18.653125 L18.6319931,20.1011553 L18.6319931,20.1011553 L18.6319931,20.1011553 Z" id="Path" fill="#FFFFFF"></path>
            </g>
        </g>
    </g>
</svg>