<?xml version="1.0" encoding="UTF-8" standalone="no"?>
<svg width="46px" height="46px" viewBox="0 0 46 46" version="1.1" xmlns="http://www.w3.org/2000/svg" xmlns:xlink="http://www.w3.org/1999/xlink">
    <!-- Generator: Sketch 39.1 (31720) - http://www.bohemiancoding.com/sketch -->
    <title>JG-009-1@2x</title>
    <desc>Created with Sketch.</desc>
    <defs>
        <path d="M38.4878192,0.348400883 C38.3531505,0.131627765 38.1163943,0 37.8605238,0 L8.26035005,0 C8.0053484,0 7.76815778,0.131627765 7.63305469,0.348400883 L0.233228458,12.1883835 C0.054683866,12.4729254 0.0907403165,12.8417438 0.320545886,13.085885 L22.520459,36.7658503 C22.6607751,36.9148546 22.8558274,37 23.0604369,37 C23.2650464,37 23.4600988,36.9148546 23.6004149,36.7658503 L45.8007624,13.085885 C46.0292647,12.8417438 46.0653212,12.4729254 45.8876454,12.1883835 L38.4878192,0.348400883 Z" id="path-1"></path>
        <mask id="mask-2" maskContentUnits="userSpaceOnUse" maskUnits="objectBoundingBox" x="0" y="0" width="45.8797297" height="37" fill="white">
            <use xlink:href="#path-1"></use>
        </mask>
        <polygon id="path-3" points="8 0 16 12 0 12"></polygon>
        <mask id="mask-4" maskContentUnits="userSpaceOnUse" maskUnits="objectBoundingBox" x="0" y="0" width="16" height="12" fill="white">
            <use xlink:href="#path-3"></use>
        </mask>
        <polygon id="path-5" points="38 0 46 12 30 12"></polygon>
        <mask id="mask-6" maskContentUnits="userSpaceOnUse" maskUnits="objectBoundingBox" x="0" y="0" width="16" height="12" fill="white">
            <use xlink:href="#path-5"></use>
        </mask>
    </defs>
    <g id="扁平彩色" stroke="none" stroke-width="1" fill="none" fill-rule="evenodd">
        <g id="九宫格" transform="translate(-453.000000, -681.000000)">
            <g id="高端理财-copy-2" transform="translate(453.000000, 685.000000)">
                <use id="Low-Poly" stroke="#C2C2C2" mask="url(#mask-2)" stroke-width="4" xlink:href="#path-1"></use>
                <use id="Path-127" stroke="#C2C2C2" mask="url(#mask-4)" stroke-width="4" xlink:href="#path-3"></use>
                <use id="Path-127-Copy-2" stroke="#C2C2C2" mask="url(#mask-6)" stroke-width="4" stroke-linecap="round" xlink:href="#path-5"></use>
                <polygon id="Path-127-Copy" fill="#C2C2C2" points="23 0 33 12 13 12"></polygon>
                <polygon id="Path-127-Copy" stroke="#C2C2C2" stroke-width="2" transform="translate(23.000000, 22.500000) scale(1, -1) translate(-23.000000, -22.500000) " points="23 11 33 34 13 34"></polygon>
            </g>
        </g>
    </g>
</svg>