<?xml version="1.0" encoding="UTF-8" standalone="no"?>
<svg width="46px" height="46px" viewBox="0 0 46 46" version="1.1" xmlns="http://www.w3.org/2000/svg" xmlns:xlink="http://www.w3.org/1999/xlink">
    <!-- Generator: Sketch 39.1 (31720) - http://www.bohemiancoding.com/sketch -->
    <title>JG-021-1@2x</title>
    <desc>Created with Sketch.</desc>
    <defs>
        <rect id="path-1" x="0" y="0" width="46" height="46" rx="3"></rect>
        <mask id="mask-2" maskContentUnits="userSpaceOnUse" maskUnits="objectBoundingBox" x="0" y="0" width="46" height="46" fill="white">
            <use xlink:href="#path-1"></use>
        </mask>
        <path d="M46,22.6588708 L46,42.9995558 C46,44.6566554 44.6482195,46 42.9995558,46 L3.00044415,46 C1.34334461,46 0,44.6482195 0,42.9995558 L0,37.6362305 L14.9069766,22.7292539 L27.7763672,33.203125 L39.2836914,17.2817383 L46,22.6588708 L46,22.6588708 Z" id="path-3"></path>
        <mask id="mask-4" maskContentUnits="userSpaceOnUse" maskUnits="objectBoundingBox" x="0" y="0" width="46" height="28.7182617" fill="white">
            <use xlink:href="#path-3"></use>
        </mask>
        <path d="M9,15 C9,14.4477153 9.45530558,14 9.99180311,14 L28.0081969,14 C28.5559546,14 29,14.4438648 29,15 C29,15.5522847 28.5446944,16 28.0081969,16 L9.99180311,16 C9.44404538,16 9,15.5561352 9,15 Z M9,9 C9,8.44771525 9.43981314,8 9.99653482,8 L36.0034652,8 C36.5538362,8 37,8.44386482 37,9 C37,9.55228475 36.5601869,10 36.0034652,10 L9.99653482,10 C9.44616384,10 9,9.55613518 9,9 Z" id="path-5"></path>
        <mask id="mask-6" maskContentUnits="userSpaceOnUse" maskUnits="objectBoundingBox" x="0" y="0" width="28" height="8" fill="white">
            <use xlink:href="#path-5"></use>
        </mask>
    </defs>
    <g id="扁平彩色" stroke="none" stroke-width="1" fill="none" fill-rule="evenodd">
        <g id="九宫格" transform="translate(-550.000000, -681.000000)">
            <g id="基金净值-2-copy" transform="translate(550.000000, 681.000000)">
                <use id="Rectangle-1" stroke="#C2C2C2" mask="url(#mask-2)" stroke-width="4" xlink:href="#path-1"></use>
                <use id="Rectangle-3" stroke="#C2C2C2" mask="url(#mask-4)" stroke-width="4" stroke-linecap="round" stroke-linejoin="round" xlink:href="#path-3"></use>
                <polygon id="Path-74" fill="#C2C2C2" points="46 25.7500018 38.2513189 19.4373462 40.435212 19.1235981 29.5729073 34.9400043 28.6523165 36.28046 27.3903853 35.2548682 14.1159713 24.4665381 16.1179252 24.3678759 8.8817842e-16 40.3424992 0 36.1186767 14.0060982 22.2371045 14.9627776 21.2889309 16.0080522 22.1384424 29.2824662 32.9267724 27.0999443 33.2416363 37.9622489 17.4252301 38.8839289 16.0831885 40.1461421 17.1114819 46 21.8804727 46 25.7500018"></polygon>
                <use id="Oval-2" stroke="#C2C2C2" mask="url(#mask-6)" stroke-width="4" fill="#FFFFFF" xlink:href="#path-5"></use>
            </g>
        </g>
    </g>
</svg>