<?xml version="1.0" encoding="utf-8"?>
<!-- Generator: Adobe Illustrator 19.0.0, SVG Export Plug-In . SVG Version: 6.00 Build 0)  -->
<svg version="1.1" id="图层_1" xmlns="http://www.w3.org/2000/svg" xmlns:xlink="http://www.w3.org/1999/xlink" x="0px" y="0px"
	 viewBox="-369 271 60 60" style="enable-background:new -369 271 60 60;" xml:space="preserve">
<style type="text/css">
	.st0{fill:#FF7748;}
</style>
<title>QT-040@2x</title>
<desc>Created with Sketch.</desc>
<path class="st0" d="M-339,271c-16.6,0-30,13.4-30,30s13.4,30,30,30s30-13.4,30-30S-322.4,271-339,271z M-329.1,307.1
	c1.1,1.1,1.1,2.8,0,3.9c-1.1,1.1-2.8,1.1-3.9,0l-6.1-6.1l-6.1,6.1c-1.1,1.1-2.8,1.1-3.9,0c-1.1-1.1-1.1-2.8,0-3.9l6.1-6.1l-6.1-6.1
	c-1.1-1.1-1.1-2.8,0-3.9c1.1-1.1,2.8-1.1,3.9,0l6.1,6.1l6.1-6.1c1.1-1.1,2.8-1.1,3.9,0c1.1,1.1,1.1,2.8,0,3.9l-6.1,6.1L-329.1,307.1
	z"/>
</svg>
