<?xml version="1.0" encoding="UTF-8" standalone="no"?>
<svg width="26px" height="26px" viewBox="0 0 26 26" version="1.1" xmlns="http://www.w3.org/2000/svg" xmlns:xlink="http://www.w3.org/1999/xlink">
    <!-- Generator: Sketch 3.8.3 (29802) - http://www.bohemiancoding.com/sketch -->
    <title>QT-002-2@2x</title>
    <desc>Created with Sketch.</desc>
    <defs></defs>
    <g id="扁平彩色" stroke="none" stroke-width="1" fill="none" fill-rule="evenodd">
        <g id="其他icon" transform="translate(-384.000000, -143.000000)" fill="#979797">
            <path d="M396.949416,164.424327 L389.66537,158.758957 L384.809339,158.758957 C384.361774,158.758957 384,158.396374 384,157.949619 L384,151.474911 C384,151.028156 384.361774,150.665572 384.809339,150.665572 L389.66537,150.665572 L396.949416,145.000202 L396.949416,164.424327 L396.949416,164.424327 Z M400.766257,149.011284 C400.587393,149.250039 400.490272,149.5673 400.490272,149.904794 C400.490272,150.242288 400.870661,150.559549 401.047097,150.797494 C402.112996,152.225977 402.066054,153.497447 402.066054,155.521603 C402.066054,157.544949 401.831346,158.815611 400.766257,160.246521 C400.399626,160.738599 400.399626,161.539844 400.766257,162.031113 C400.943502,162.269868 401.179829,162.400981 401.430724,162.400981 C401.681619,162.400981 401.917946,162.269868 402.095191,162.031113 C403.516389,160.124311 403.828794,158.219128 403.828794,155.520794 C403.828794,152.82165 403.516389,150.916467 402.095191,149.010475 C401.727751,148.519206 401.132887,148.519206 400.766257,149.011284 L400.766257,149.011284 Z M406.637198,145.317463 C406.272187,144.894179 405.68137,144.894179 405.316358,145.317463 C405.140732,145.522226 405.042802,145.794973 405.042802,146.084716 C405.042802,146.374459 405.140732,146.647206 405.316358,146.851969 C407.432778,149.312358 408.248591,152.039829 408.248591,155.520794 C408.248591,159.000949 407.432778,161.72923 405.316358,164.189619 C404.952965,164.612903 404.952965,165.30165 405.316358,165.724934 C405.492794,165.929696 405.261323,166.043004 405.50979,166.043004 C405.758257,166.043004 406.460763,165.929696 406.637198,165.724934 C409.1073,162.85421 410,159.580436 410,155.521603 C410,151.461961 409.10649,148.188187 406.637198,145.317463 L406.637198,145.317463 Z" id="Volume-Icon-Copy"></path>
        </g>
    </g>
</svg>