<?xml version="1.0" encoding="utf-8"?>
<!-- Generator: Adobe Illustrator 19.0.0, SVG Export Plug-In . SVG Version: 6.00 Build 0)  -->
<svg version="1.1" id="图层_1" xmlns="http://www.w3.org/2000/svg" xmlns:xlink="http://www.w3.org/1999/xlink" x="0px" y="0px"
	 viewBox="-369 271 60 60" style="enable-background:new -369 271 60 60;" xml:space="preserve">
<style type="text/css">
	.st0{fill:#7ED321;}
</style>
<title>QT-039@2x</title>
<desc>Created with Sketch.</desc>
<path class="st0" d="M-339,271c-16.6,0-30,13.4-30,30s13.4,30,30,30s30-13.4,30-30S-322.4,271-339,271z M-325,296.7l-14.8,14.8
	c-0.5,0.5-1.3,0.8-2,0.8c-0.7,0-1.4-0.3-2-0.8l-9.3-9.3c-0.6-0.6-0.8-1.3-0.8-2.1c0-0.7,0.3-1.3,0.8-1.9c0.5-0.5,1.2-0.8,1.9-0.8
	c0.7,0,1.5,0.2,2.1,0.8l7.3,7.3l12.9-12.9c0.6-0.6,1.3-0.8,2.1-0.8c0.7,0,1.3,0.3,1.9,0.8c0.5,0.5,0.8,1.2,0.8,1.9
	C-324.2,295.4-324.4,296.2-325,296.7z"/>
</svg>
