<?xml version="1.0" encoding="UTF-8" standalone="no"?>
<svg width="26px" height="26px" viewBox="0 0 26 26" version="1.1" xmlns="http://www.w3.org/2000/svg" xmlns:xlink="http://www.w3.org/1999/xlink">
    <!-- Generator: Sketch 3.8.3 (29802) - http://www.bohemiancoding.com/sketch -->
    <title>QT-003-3@2x</title>
    <desc>Created with Sketch.</desc>
    <defs></defs>
    <g id="扁平彩色" stroke="none" stroke-width="1" fill="none" fill-rule="evenodd">
        <g id="其他icon" transform="translate(-672.000000, -144.000000)" fill="#F6A623">
            <g id="问号-copy" transform="translate(672.000000, 144.000000)">
                <path d="M8.56,10.94 C8.5866668,9.9799952 8.699999,9.2500025 8.9,8.75 C9.100001,8.2499975 9.4199978,7.8033353 9.86,7.41 C10.3000022,7.0166647 10.7899973,6.7266676 11.33,6.54 C11.8700027,6.3533324 12.439997,6.26 13.04,6.26 C14.2533394,6.26 15.2633293,6.6166631 16.07,7.33 C16.8766707,8.0433369 17.28,8.9933274 17.28,10.18 C17.28,10.713336 17.1766677,11.1966645 16.97,11.63 C16.7633323,12.0633355 16.3233367,12.6033301 15.65,13.25 C14.9766633,13.8966699 14.5300011,14.3566653 14.31,14.63 C14.0899989,14.9033347 13.9233339,15.2299981 13.81,15.61 C13.6966661,15.9900019 13.6466666,16.4999968 13.66,17.14 L11.9,17.14 C11.9,16.3933296 11.9599994,15.7966689 12.08,15.35 C12.2000006,14.9033311 12.3799988,14.513335 12.62,14.18 C12.8600012,13.846665 13.2933302,13.3566699 13.92,12.71 C14.5466698,12.0633301 14.9499991,11.5933348 15.13,11.3 C15.3100009,11.0066652 15.4,10.5700029 15.4,9.99 C15.4,9.4099971 15.1933354,8.8966689 14.78,8.45 C14.3666646,8.0033311 13.7666706,7.78 12.98,7.78 C11.2066578,7.78 10.32,8.8333228 10.32,10.94 L8.56,10.94 Z M13.8,20.8 L11.86,20.8 L11.86,18.76 L13.8,18.76 L13.8,20.8 Z" id="？"></path>
                <path d="M13,26 C20.1797017,26 26,20.1797017 26,13 C26,5.82029825 20.1797017,0 13,0 C5.82029825,0 0,5.82029825 0,13 C0,20.1797017 5.82029825,26 13,26 L13,26 Z M13,23.7391304 C7.06894203,23.7391304 2.26086957,18.931058 2.26086957,13 C2.26086957,7.06894203 7.06894203,2.26086957 13,2.26086957 C18.931058,2.26086957 23.7391304,7.06894203 23.7391304,13 C23.7391304,18.931058 18.931058,23.7391304 13,23.7391304 L13,23.7391304 Z" id="Oval-58"></path>
            </g>
        </g>
    </g>
</svg>