<?xml version="1.0" encoding="utf-8"?>
<!-- Generator: Adobe Illustrator 19.0.0, SVG Export Plug-In . SVG Version: 6.00 Build 0)  -->
<svg version="1.1" id="图层_1" xmlns="http://www.w3.org/2000/svg" xmlns:xlink="http://www.w3.org/1999/xlink" x="0px" y="0px"
	 viewBox="-296 978 46 46" style="enable-background:new -296 978 46 46;" xml:space="preserve">
<title>QT-023@2x</title>
<desc>Created with Sketch.</desc>
<path id="Oval-100" d="M-272.5,1010.2L-272.5,1010.2c4.7,0,9.6-2,14.2-5.5c1.7-1.2,3.2-2.5,4.5-3.9c0.5-0.5,0.9-0.9,1.2-1.3
	c0.2-0.2,0.3-0.4,0.4-0.4v3.6c-0.1-0.1-0.2-0.2-0.4-0.4c-0.3-0.4-0.7-0.8-1.2-1.3c-1.3-1.3-2.8-2.6-4.5-3.9
	c-4.7-3.4-9.5-5.5-14.2-5.5s-9.6,2-14.2,5.5c-1.7,1.2-3.2,2.5-4.5,3.9c-0.5,0.5-0.9,0.9-1.2,1.3c-0.2,0.2-0.3,0.4-0.4,0.4v-3.6
	c0.1,0.1,0.2,0.2,0.4,0.4c0.3,0.4,0.7,0.8,1.2,1.3c1.3,1.3,2.8,2.6,4.5,3.9C-282.1,1008.2-277.2,1010.2-272.5,1010.2L-272.5,1010.2
	L-272.5,1010.2z M-295,1001c0,0,10.1-12,22.5-12s22.5,12,22.5,12s-10.1,12-22.5,12S-295,1001-295,1001z"/>
<path d="M-273,990.7c-5.2,0-9.4,4.1-9.4,9.2c0,5.1,4.2,9.2,9.4,9.2s9.4-4.1,9.4-9.2C-263.6,994.8-267.8,990.7-273,990.7z
	 M-276.5,1000.2c-2.1,0-3.8-1.7-3.8-3.8c0-2.1,1.7-3.8,3.8-3.8s3.8,1.7,3.8,3.8C-272.8,998.6-274.5,1000.2-276.5,1000.2z"/>
</svg>
