<?xml version="1.0" encoding="UTF-8" standalone="no"?>
<svg width="26px" height="26px" viewBox="0 0 26 26" version="1.1" xmlns="http://www.w3.org/2000/svg" xmlns:xlink="http://www.w3.org/1999/xlink">
    <!-- Generator: Sketch 3.8.3 (29802) - http://www.bohemiancoding.com/sketch -->
    <title>QT-002-4@2x</title>
    <desc>Created with Sketch.</desc>
    <defs></defs>
    <g id="扁平彩色" stroke="none" stroke-width="1" fill="none" fill-rule="evenodd">
        <g id="其他icon－深色" transform="translate(-167.000000, -143.000000)" fill="#FFFFFF">
            <path d="M179.949416,164.424327 L172.66537,158.758957 L167.809339,158.758957 C167.361774,158.758957 167,158.396374 167,157.949619 L167,151.474911 C167,151.028156 167.361774,150.665572 167.809339,150.665572 L172.66537,150.665572 L179.949416,145.000202 L179.949416,164.424327 L179.949416,164.424327 Z M183.766257,149.011284 C183.587393,149.250039 183.490272,149.5673 183.490272,149.904794 C183.490272,150.242288 183.870661,150.559549 184.047097,150.797494 C185.112996,152.225977 185.066054,153.497447 185.066054,155.521603 C185.066054,157.544949 184.831346,158.815611 183.766257,160.246521 C183.399626,160.738599 183.399626,161.539844 183.766257,162.031113 C183.943502,162.269868 184.179829,162.400981 184.430724,162.400981 C184.681619,162.400981 184.917946,162.269868 185.095191,162.031113 C186.516389,160.124311 186.828794,158.219128 186.828794,155.520794 C186.828794,152.82165 186.516389,150.916467 185.095191,149.010475 C184.727751,148.519206 184.132887,148.519206 183.766257,149.011284 L183.766257,149.011284 Z M189.637198,145.317463 C189.272187,144.894179 188.68137,144.894179 188.316358,145.317463 C188.140732,145.522226 188.042802,145.794973 188.042802,146.084716 C188.042802,146.374459 188.140732,146.647206 188.316358,146.851969 C190.432778,149.312358 191.248591,152.039829 191.248591,155.520794 C191.248591,159.000949 190.432778,161.72923 188.316358,164.189619 C187.952965,164.612903 187.952965,165.30165 188.316358,165.724934 C188.492794,165.929696 188.261323,166.043004 188.50979,166.043004 C188.758257,166.043004 189.460763,165.929696 189.637198,165.724934 C192.1073,162.85421 193,159.580436 193,155.521603 C193,151.461961 192.10649,148.188187 189.637198,145.317463 L189.637198,145.317463 Z" id="Volume-Icon-Copy-2"></path>
        </g>
    </g>
</svg>