<?xml version="1.0" encoding="UTF-8" standalone="no"?>
<svg width="46px" height="46px" viewBox="0 0 46 46" version="1.1" xmlns="http://www.w3.org/2000/svg" xmlns:xlink="http://www.w3.org/1999/xlink">
    <!-- Generator: Sketch 3.8.3 (29802) - http://www.bohemiancoding.com/sketch -->
    <title>QT-025@2x</title>
    <desc>Created with Sketch.</desc>
    <defs></defs>
    <g id="扁平彩色" stroke="none" stroke-width="1" fill="none" fill-rule="evenodd" opacity="0.7">
        <g id="其他icon" transform="translate(-875.000000, -339.000000)" fill="#CCCCCC">
            <g id="隐藏" transform="translate(875.000000, 355.000000)">
                <path d="M41.0722123,0.681818182 C39.7964806,1.88076493 38.357894,3.0775992 36.7863814,4.19600573 C32.1295156,7.51018162 27.2678631,9.47272727 22.5,9.47272727 C17.7321369,9.47272727 12.8704844,7.51018162 8.21361856,4.19600573 C6.64210597,3.0775992 5.20351943,1.88076493 3.92778766,0.681818182 L0,0.681818182 C0,0.681818182 10.0735931,12.2727273 22.5,12.2727273 C34.9264069,12.2727273 45,0.681818182 45,0.681818182 L41.0722125,0.681818182 L41.0722123,0.681818182 Z" id="Path"></path>
                <path d="M6.81595494,4.78847636 C6.68737918,4.8300362 6.45456814,4.90353821 6.14513791,4.99829196 C5.62890363,5.15637327 5.09094879,5.31445 4.55919494,5.46177574 C4.30453149,5.53233184 4.05702353,5.59879552 3.81850415,5.66047326 C2.69519349,5.95094551 1.83288128,6.11818182 1.40625,6.11818182 L1.40625,7.51818182 C1.99211872,7.51818182 2.92980651,7.33632722 4.16899585,7.01589038 C4.41563272,6.95211357 4.67085914,6.88357725 4.93299256,6.81095154 C5.47789887,6.65998182 6.02759051,6.49845627 6.5550574,6.33693531 C6.87184788,6.2399277 7.11144894,6.16428198 7.24654506,6.12061455 L6.81595494,4.78847636 L6.81595494,4.78847636 Z" id="Path-538"></path>
                <path d="M37.7534549,4.75697818 C37.8885511,4.80064562 38.1281521,4.87629134 38.4449426,4.97329895 C38.9724095,5.13481991 39.5221011,5.29634546 40.0670074,5.44731517 C40.3291409,5.51994088 40.5843673,5.58847721 40.8310042,5.65225401 C42.0701935,5.97269085 43.0078813,6.15454545 43.59375,6.15454545 L43.59375,4.75454545 C43.1671187,4.75454545 42.3048065,4.58730915 41.1814958,4.29683689 C40.9429765,4.23515916 40.6954685,4.16869548 40.4408051,4.09813937 C39.9090512,3.95081363 39.3710964,3.79273691 38.8548621,3.6346556 C38.5454319,3.53990185 38.3126208,3.46639984 38.1840451,3.42484 L37.7534549,4.75697818 L37.7534549,4.75697818 Z" id="Path-538-Copy"></path>
                <path d="M9.35644791,6.31565154 C9.27489215,6.39473592 9.12228694,6.53761394 8.91546121,6.72274467 C8.56984309,7.03210914 8.20303797,7.34140463 7.83265686,7.62873058 C7.53017753,7.86338121 7.23851823,8.07287835 6.96372035,8.25052547 C6.36612394,8.63685042 5.88209718,8.84545455 5.625,8.84545455 L5.625,10.2454545 C6.22727782,10.2454545 6.91512606,9.94900817 7.72377965,9.42624221 C8.03491927,9.22510145 8.35849434,8.9926794 8.69078064,8.73490578 C9.0894425,8.42564082 9.48069402,8.09573177 9.84918723,7.7658917 C10.0708283,7.56749969 10.2368266,7.41208226 10.3310521,7.32071209 L9.35644791,6.31565154 L9.35644791,6.31565154 Z" id="Path-539"></path>
                <path d="M36.0751979,7.32071209 C36.1694234,7.41208226 36.3354217,7.56749969 36.5570628,7.7658917 C36.925556,8.09573177 37.3168075,8.42564082 37.7154694,8.73490578 C38.0477557,8.9926794 38.3713307,9.22510145 38.6824703,9.42624221 C39.4911239,9.94900817 40.1789722,10.2454545 40.78125,10.2454545 L40.78125,8.84545455 C40.5241528,8.84545455 40.0401261,8.63685042 39.4425297,8.25052547 C39.1677318,8.07287835 38.8760725,7.86338121 38.5735931,7.62873058 C38.203212,7.34140463 37.8364069,7.03210914 37.4907888,6.72274467 C37.2839631,6.53761394 37.1313579,6.39473592 37.0498021,6.31565154 L36.0751979,7.32071209 L36.0751979,7.32071209 Z" id="Path-539-Copy"></path>
                <path d="M13.5751979,9.04292427 C13.4936421,9.12200865 13.3410369,9.26488667 13.1342112,9.45001739 C12.7885931,9.75938187 12.421788,10.0686774 12.0514069,10.3560033 C11.7489275,10.5906539 11.4572682,10.8001511 11.1824703,10.9777982 C10.5848739,11.3641231 10.1008472,11.5727273 9.84375,11.5727273 L9.84375,12.9727273 C10.4460278,12.9727273 11.1338761,12.6762809 11.9425297,12.1535149 C12.2536693,11.9523742 12.5772443,11.7199521 12.9095306,11.4621785 C13.3081925,11.1529136 13.699444,10.8230045 14.0679372,10.4931644 C14.2895783,10.2947724 14.4555766,10.139355 14.5498021,10.0479848 L13.5751979,9.04292427 L13.5751979,9.04292427 Z" id="Path-540"></path>
                <path d="M30.4501979,10.0479848 C30.5444234,10.139355 30.7104217,10.2947724 30.9320628,10.4931644 C31.300556,10.8230045 31.6918075,11.1529136 32.0904694,11.4621785 C32.4227557,11.7199521 32.7463307,11.9523742 33.0574703,12.1535149 C33.8661239,12.6762809 34.5539722,12.9727273 35.15625,12.9727273 L35.15625,11.5727273 C34.8991528,11.5727273 34.4151261,11.3641231 33.8175297,10.9777982 C33.5427318,10.8001511 33.2510725,10.5906539 32.9485931,10.3560033 C32.578212,10.0686774 32.2114069,9.75938187 31.8657888,9.45001739 C31.6589631,9.26488667 31.5063579,9.12200865 31.4248021,9.04292427 L30.4501979,10.0479848 L30.4501979,10.0479848 Z" id="Path-540-Copy"></path>
                <path d="M19.0255194,10.6815351 C18.9851744,10.7989022 18.9067609,11.0118067 18.7961007,11.2877387 C18.6114866,11.7480751 18.4059733,12.2079651 18.1864315,12.6337431 C17.6515648,13.6710604 17.1110698,14.3 16.875,14.3 L16.875,15.7 C17.8693989,15.7 18.6472634,14.7948486 19.430756,13.2753478 C19.67264,12.8062394 19.8955934,12.3073227 20.0955008,11.8088522 C20.2155535,11.5095001 20.301935,11.2749614 20.3494806,11.1366467 L19.0255194,10.6815351 L19.0255194,10.6815351 Z" id="Path-541"></path>
                <path d="M24.6505194,11.1366467 C24.698065,11.2749614 24.7844465,11.5095001 24.9044992,11.8088522 C25.1044066,12.3073227 25.32736,12.8062394 25.569244,13.2753478 C26.3527366,14.7948486 27.1306011,15.7 28.125,15.7 L28.125,14.3 C27.8889302,14.3 27.3484352,13.6710604 26.8135685,12.6337431 C26.5940267,12.2079651 26.3885134,11.7480751 26.2038993,11.2877387 C26.0932391,11.0118067 26.0148256,10.7989022 25.9744806,10.6815351 L24.6505194,11.1366467 L24.6505194,11.1366467 Z" id="Path-541-Copy"></path>
            </g>
        </g>
    </g>
</svg>