<?xml version="1.0" encoding="utf-8"?>
<!-- Generator: Adobe Illustrator 19.0.0, SVG Export Plug-In . SVG Version: 6.00 Build 0)  -->
<svg version="1.1" id="图形" xmlns="http://www.w3.org/2000/svg" xmlns:xlink="http://www.w3.org/1999/xlink" x="0px" y="0px"
	 viewBox="15.167 -16.333 1000.636 1000.678" enable-background="new 15.167 -16.333 1000.636 1000.678" xml:space="preserve">
<path d="M515.485,243.005c-276.318,0-500.318,266.836-500.318,266.836s224,266.836,500.318,266.836s500.318-266.836,500.318-266.836
	S791.803,243.005,515.485,243.005z M509.037,409.284c0,46.325-37.408,83.88-83.553,83.88s-83.553-37.555-83.553-83.88
	c0-46.327,37.409-83.882,83.553-83.882S509.037,362.957,509.037,409.284z M515.485,714.416
	c-105.555,0-213.425-45.082-316.846-121.282c-35.944-26.483-68.693-54.888-97.675-83.293c28.982-28.405,61.731-56.81,97.675-83.293
	c53.627-39.511,108.452-70.426,163.529-91.258c-40.492,37.228-65.933,90-65.933,148.718c0,112.694,93.184,204.051,208.132,204.051
	s208.132-91.357,208.132-204.051c0-65.695-31.799-123.979-80.984-161.3c67.578,19.707,135.096,55.419,200.817,103.841
	c35.944,26.483,68.693,54.888,97.675,83.293c-28.982,28.405-61.731,56.81-97.675,83.293
	C728.91,669.334,621.04,714.416,515.485,714.416z"/>
</svg>
