<?xml version="1.0" encoding="UTF-8" standalone="no"?>
<svg width="80px" height="80px" viewBox="0 0 80 80" version="1.1" xmlns="http://www.w3.org/2000/svg" xmlns:xlink="http://www.w3.org/1999/xlink">
    <!-- Generator: Sketch 3.8.3 (29802) - http://www.bohemiancoding.com/sketch -->
    <title>QT-016@2x</title>
    <desc>Created with Sketch.</desc>
    <defs>
        <rect id="path-1" x="0" y="0" width="80" height="44"></rect>
        <mask id="mask-2" maskContentUnits="userSpaceOnUse" maskUnits="objectBoundingBox" x="0" y="0" width="80" height="44" fill="white">
            <use xlink:href="#path-1"></use>
        </mask>
    </defs>
    <g id="扁平彩色" stroke="none" stroke-width="1" fill="none" fill-rule="evenodd">
        <g id="其他icon" transform="translate(-283.000000, -555.000000)">
            <g id="收缩键盘" transform="translate(283.000000, 569.000000)">
                <rect id="Rectangle-40" fill="#000000" x="16" y="29" width="48" height="6"></rect>
                <use id="Rectangle-28" stroke="#000000" mask="url(#mask-2)" stroke-width="4" xlink:href="#path-1"></use>
                <rect id="Rectangle-29" fill="#000000" x="7" y="8" width="6" height="6"></rect>
                <rect id="Rectangle-29-Copy" fill="#000000" x="19" y="8" width="6" height="6"></rect>
                <rect id="Rectangle-29-Copy-6" fill="#000000" x="13" y="18" width="6" height="6"></rect>
                <rect id="Rectangle-29-Copy-2" fill="#000000" x="31" y="8" width="6" height="6"></rect>
                <rect id="Rectangle-29-Copy-7" fill="#000000" x="25" y="18" width="6" height="6"></rect>
                <rect id="Rectangle-29-Copy-3" fill="#000000" x="43" y="8" width="6" height="6"></rect>
                <rect id="Rectangle-29-Copy-8" fill="#000000" x="37" y="18" width="6" height="6"></rect>
                <rect id="Rectangle-29-Copy-4" fill="#000000" x="55" y="8" width="6" height="6"></rect>
                <rect id="Rectangle-29-Copy-9" fill="#000000" x="49" y="18" width="6" height="6"></rect>
                <rect id="Rectangle-29-Copy-10" fill="#000000" x="61" y="18" width="6" height="6"></rect>
                <rect id="Rectangle-29-Copy-11" fill="#000000" x="67" y="29" width="6" height="6"></rect>
                <rect id="Rectangle-29-Copy-12" fill="#000000" x="7" y="29" width="6" height="6"></rect>
                <rect id="Rectangle-29-Copy-5" fill="#000000" x="67" y="8" width="6" height="6"></rect>
                <polygon id="Path-30" fill="#000000" points="33 49 47 49 40.3684211 57"></polygon>
            </g>
        </g>
    </g>
</svg>