<?xml version="1.0" encoding="UTF-8" standalone="no"?>
<svg width="46px" height="46px" viewBox="0 0 46 46" version="1.1" xmlns="http://www.w3.org/2000/svg" xmlns:xlink="http://www.w3.org/1999/xlink">
    <!-- Generator: Sketch 3.8.3 (29802) - http://www.bohemiancoding.com/sketch -->
    <title>QT-014@2x</title>
    <desc>Created with Sketch.</desc>
    <defs></defs>
    <g id="扁平彩色" stroke="none" stroke-width="1" fill="none" fill-rule="evenodd">
        <g id="其他icon" transform="translate(-193.000000, -569.000000)" fill="#333333">
            <g id="Group" transform="translate(193.000000, 570.000000)">
                <path d="M11,14 L16,14 L16,19 L11,19 L11,14 L11,14 Z M21,14 L26,14 L26,19 L21,19 L21,14 L21,14 Z M30,14 L35,14 L35,19 L30,19 L30,14 L30,14 Z M11,22 L35,22 L35,27 L11,27 L11,22 L11,22 Z M6,6 L11,6 L11,11 L6,11 L6,6 L6,6 Z M16,6 L21,6 L21,11 L16,11 L16,6 L16,6 Z M25,6 L30,6 L30,11 L25,11 L25,6 L25,6 Z M35,6 L40,6 L40,11 L35,11 L35,6 L35,6 Z M28.3829787,38.1521739 L18.5957447,38.1521739 L23.4893617,45 L28.3829787,38.1521739 Z" id="Combined-Shape"></path>
                <path d="M4.89361702,0 L41.106383,0 C43.9843159,0 46,1.96776732 46,3.91304348 L46,28 C46,30.6007023 43.9854179,32.8913043 41.106383,32.8913043 L4.89361702,32.8913043 C2.01568389,32.8913043 0,30.5987075 0,28 L0,3.91304348 C0,1.96577253 2.01458187,0 4.89361702,0 Z M3.91489264,30.9565215 L42.0851054,30.9565215 C43.0208387,30.9565215 44.0425522,29.9465319 44.0425522,28.9999998 L44.0425532,3.91304348 C44.0425532,2.96816254 43.0193173,1.95652174 42.0851064,1.95652174 L3.91489362,1.95652174 C2.97916029,1.95652174 1.95744681,2.96651129 1.95744681,3.91304348 L1.95744583,28.9999998 C1.95744583,29.9448807 2.98068171,30.9565215 3.91489264,30.9565215 Z" id="Shape"></path>
            </g>
        </g>
    </g>
</svg>