<?xml version="1.0" encoding="UTF-8" standalone="no"?>
<svg width="26px" height="26px" viewBox="0 0 26 26" version="1.1" xmlns="http://www.w3.org/2000/svg" xmlns:xlink="http://www.w3.org/1999/xlink">
    <!-- Generator: Sketch 3.8.3 (29802) - http://www.bohemiancoding.com/sketch -->
    <title>QT-002-3@2x</title>
    <desc>Created with Sketch.</desc>
    <defs></defs>
    <g id="扁平彩色" stroke="none" stroke-width="1" fill="none" fill-rule="evenodd">
        <g id="其他icon" transform="translate(-454.000000, -143.000000)" fill="#F6A623">
            <path d="M466.949416,164.424327 L459.66537,158.758957 L454.809339,158.758957 C454.361774,158.758957 454,158.396374 454,157.949619 L454,151.474911 C454,151.028156 454.361774,150.665572 454.809339,150.665572 L459.66537,150.665572 L466.949416,145.000202 L466.949416,164.424327 L466.949416,164.424327 Z M470.766257,149.011284 C470.587393,149.250039 470.490272,149.5673 470.490272,149.904794 C470.490272,150.242288 470.870661,150.559549 471.047097,150.797494 C472.112996,152.225977 472.066054,153.497447 472.066054,155.521603 C472.066054,157.544949 471.831346,158.815611 470.766257,160.246521 C470.399626,160.738599 470.399626,161.539844 470.766257,162.031113 C470.943502,162.269868 471.179829,162.400981 471.430724,162.400981 C471.681619,162.400981 471.917946,162.269868 472.095191,162.031113 C473.516389,160.124311 473.828794,158.219128 473.828794,155.520794 C473.828794,152.82165 473.516389,150.916467 472.095191,149.010475 C471.727751,148.519206 471.132887,148.519206 470.766257,149.011284 L470.766257,149.011284 Z M476.637198,145.317463 C476.272187,144.894179 475.68137,144.894179 475.316358,145.317463 C475.140732,145.522226 475.042802,145.794973 475.042802,146.084716 C475.042802,146.374459 475.140732,146.647206 475.316358,146.851969 C477.432778,149.312358 478.248591,152.039829 478.248591,155.520794 C478.248591,159.000949 477.432778,161.72923 475.316358,164.189619 C474.952965,164.612903 474.952965,165.30165 475.316358,165.724934 C475.492794,165.929696 475.261323,166.043004 475.50979,166.043004 C475.758257,166.043004 476.460763,165.929696 476.637198,165.724934 C479.1073,162.85421 480,159.580436 480,155.521603 C480,151.461961 479.10649,148.188187 476.637198,145.317463 L476.637198,145.317463 Z" id="Volume-Icon-Copy-2"></path>
        </g>
    </g>
</svg>