<?xml version="1.0" encoding="UTF-8" standalone="no"?>
<svg width="26px" height="26px" viewBox="0 0 26 26" version="1.1" xmlns="http://www.w3.org/2000/svg" xmlns:xlink="http://www.w3.org/1999/xlink">
    <!-- Generator: Sketch 3.8.3 (29802) - http://www.bohemiancoding.com/sketch -->
    <title>QT-001-3@2x</title>
    <desc>Created with Sketch.</desc>
    <defs></defs>
    <g id="扁平彩色" stroke="none" stroke-width="1" fill="none" fill-rule="evenodd">
        <g id="其他icon" transform="translate(-240.000000, -144.000000)" fill="#F6A623">
            <g id="注释-copy-2" transform="translate(240.000000, 144.000000)">
                <path d="M12.8366168,6.25934103 C13.2671557,6.25934103 13.6579466,6.41499505 14.0090014,6.72630774 C14.3600561,7.03762044 14.5355808,7.44165852 14.5355808,7.9384341 C14.5355808,8.40871499 14.3683356,8.80612949 14.03384,9.13068954 C13.6993445,9.45524958 13.3002741,9.61752717 12.8366168,9.61752717 C12.3597123,9.61752717 11.9573301,9.4502819 11.6294582,9.11578635 C11.3015863,8.78129079 11.1376529,8.38553218 11.1376529,7.92849864 C11.1376529,7.46484143 11.306554,7.07073872 11.6443614,6.74617867 C11.9821688,6.42161862 12.3795833,6.25934103 12.8366168,6.25934103 L12.8366168,6.25934103 Z M11.2469429,10.8793308 L14.3964844,10.8793308 L14.3964844,20.3478261 L11.2469429,20.3478261 L11.2469429,10.8793308 Z" id="i"></path>
                <path d="M13,26 C20.1797017,26 26,20.1797017 26,13 C26,5.82029825 20.1797017,0 13,0 C5.82029825,0 0,5.82029825 0,13 C0,20.1797017 5.82029825,26 13,26 L13,26 Z M13,23.7391304 C7.06894203,23.7391304 2.26086957,18.931058 2.26086957,13 C2.26086957,7.06894203 7.06894203,2.26086957 13,2.26086957 C18.931058,2.26086957 23.7391304,7.06894203 23.7391304,13 C23.7391304,18.931058 18.931058,23.7391304 13,23.7391304 L13,23.7391304 Z" id="Oval-58"></path>
            </g>
        </g>
    </g>
</svg>