<?xml version="1.0" encoding="UTF-8" standalone="no"?>
<svg width="32px" height="32px" viewBox="0 0 32 32" version="1.1" xmlns="http://www.w3.org/2000/svg" xmlns:xlink="http://www.w3.org/1999/xlink">
    <!-- Generator: Sketch 3.8.3 (29802) - http://www.bohemiancoding.com/sketch -->
    <title>QT-022-1@2x</title>
    <desc>Created with Sketch.</desc>
    <defs>
        <path d="M16,14 C19.6760073,14 22.656,11.0898509 22.656,7.5 C22.656,3.91014913 19.6760073,1 16,1 C12.3239927,1 9.344,3.91014913 9.344,7.5 C9.344,11.0898509 12.3239927,14 16,14 Z M14.016,8.344 C15.4917049,8.344 16.688,7.14770485 16.688,5.672 C16.688,4.19629515 15.4917049,3 14.016,3 C12.5402951,3 11.344,4.19629515 11.344,5.672 C11.344,7.14770485 12.5402951,8.344 14.016,8.344 Z" id="path-1"></path>
        <mask id="mask-2" maskContentUnits="userSpaceOnUse" maskUnits="objectBoundingBox" x="0" y="0" width="13.312" height="13" fill="white">
            <use xlink:href="#path-1"></use>
        </mask>
        <path d="M16,17 C24.836556,17 32,8.5 32,8.5 C32,8.5 24.836556,0 16,0 C7.163444,0 0,8.5 0,8.5 C0,8.5 7.163444,17 16,17 Z" id="path-3"></path>
        <mask id="mask-4" maskContentUnits="userSpaceOnUse" maskUnits="objectBoundingBox" x="0" y="0" width="32" height="17" fill="white">
            <use xlink:href="#path-3"></use>
        </mask>
    </defs>
    <g id="扁平彩色" stroke="none" stroke-width="1" fill="none" fill-rule="evenodd" opacity="0.7">
        <g id="其他icon－深色" transform="translate(-595.000000, -346.000000)" stroke="#FFFFFF" stroke-width="4">
            <g id="显示" transform="translate(595.232233, 355.000000)">
                <use id="Combined-Shape" mask="url(#mask-2)" fill="#FFFFFF" xlink:href="#path-1"></use>
                <use id="Oval-100" mask="url(#mask-4)" xlink:href="#path-3"></use>
            </g>
        </g>
    </g>
</svg>