<?xml version="1.0" encoding="UTF-8" standalone="no"?>
<svg width="28px" height="28px" viewBox="0 0 28 28" version="1.1" xmlns="http://www.w3.org/2000/svg" xmlns:xlink="http://www.w3.org/1999/xlink">
    <!-- Generator: Sketch 3.8.3 (29802) - http://www.bohemiancoding.com/sketch -->
    <title>QT-005-2@2x</title>
    <desc>Created with Sketch.</desc>
    <defs></defs>
    <g id="扁平彩色" stroke="none" stroke-width="1" fill="none" fill-rule="evenodd">
        <g id="其他icon－深色" transform="translate(-94.000000, -247.000000)" fill="#FFFFFF">
            <path d="M122,272.099 L113.936,263.996 C115.18,262.325 115.926,260.258 115.926,258.011 C115.926,252.482 111.466,248 105.963,248 C100.46,248 96,252.482 96,258.011 C96,263.54 100.46,268.022 105.963,268.022 C108.231,268.022 110.316,267.252 111.99,265.969 L119.982,274 L122,272.099 L122,272.099 Z M97.766,258.011 C97.766,253.469 101.443,249.774 105.963,249.774 C110.483,249.774 114.16,253.469 114.16,258.011 C114.16,262.553 110.483,266.248 105.963,266.248 C101.443,266.248 97.766,262.553 97.766,258.011 L97.766,258.011 Z" id="Search-Icon"></path>
        </g>
    </g>
</svg>