<?xml version="1.0" encoding="UTF-8" standalone="no"?>
<svg width="26px" height="26px" viewBox="0 0 26 26" version="1.1" xmlns="http://www.w3.org/2000/svg" xmlns:xlink="http://www.w3.org/1999/xlink">
    <!-- Generator: Sketch 3.8.3 (29802) - http://www.bohemiancoding.com/sketch -->
    <title>QT-002-1@2x</title>
    <desc>Created with Sketch.</desc>
    <defs></defs>
    <g id="扁平彩色" stroke="none" stroke-width="1" fill="none" fill-rule="evenodd">
        <g id="其他icon" transform="translate(-310.000000, -143.000000)" fill="#FF4400">
            <path d="M322.949416,164.424327 L315.66537,158.758957 L310.809339,158.758957 C310.361774,158.758957 310,158.396374 310,157.949619 L310,151.474911 C310,151.028156 310.361774,150.665572 310.809339,150.665572 L315.66537,150.665572 L322.949416,145.000202 L322.949416,164.424327 L322.949416,164.424327 Z M326.766257,149.011284 C326.587393,149.250039 326.490272,149.5673 326.490272,149.904794 C326.490272,150.242288 326.870661,150.559549 327.047097,150.797494 C328.112996,152.225977 328.066054,153.497447 328.066054,155.521603 C328.066054,157.544949 327.831346,158.815611 326.766257,160.246521 C326.399626,160.738599 326.399626,161.539844 326.766257,162.031113 C326.943502,162.269868 327.179829,162.400981 327.430724,162.400981 C327.681619,162.400981 327.917946,162.269868 328.095191,162.031113 C329.516389,160.124311 329.828794,158.219128 329.828794,155.520794 C329.828794,152.82165 329.516389,150.916467 328.095191,149.010475 C327.727751,148.519206 327.132887,148.519206 326.766257,149.011284 L326.766257,149.011284 Z M332.637198,145.317463 C332.272187,144.894179 331.68137,144.894179 331.316358,145.317463 C331.140732,145.522226 331.042802,145.794973 331.042802,146.084716 C331.042802,146.374459 331.140732,146.647206 331.316358,146.851969 C333.432778,149.312358 334.248591,152.039829 334.248591,155.520794 C334.248591,159.000949 333.432778,161.72923 331.316358,164.189619 C330.952965,164.612903 330.952965,165.30165 331.316358,165.724934 C331.492794,165.929696 331.261323,166.043004 331.50979,166.043004 C331.758257,166.043004 332.460763,165.929696 332.637198,165.724934 C335.1073,162.85421 336,159.580436 336,155.521603 C336,151.461961 335.10649,148.188187 332.637198,145.317463 L332.637198,145.317463 Z" id="Volume-Icon"></path>
        </g>
    </g>
</svg>