<?xml version="1.0" encoding="UTF-8" standalone="no"?>
<svg width="46px" height="46px" viewBox="0 0 46 46" version="1.1" xmlns="http://www.w3.org/2000/svg" xmlns:xlink="http://www.w3.org/1999/xlink">
    <!-- Generator: Sketch 3.8.3 (29802) - http://www.bohemiancoding.com/sketch -->
    <title>BT-001-1@2x</title>
    <desc>Created with Sketch.</desc>
    <defs></defs>
    <g id="扁平彩色" stroke="none" stroke-width="1" fill="none" fill-rule="evenodd">
        <g id="状态栏" transform="translate(-179.000000, -141.000000)" fill="#9B9B9B">
            <g id="首页" transform="translate(179.000000, 142.000000)">
                <path d="M1.71483403,24.6992942 L24.214834,1.69929416 L22.785166,1.69929416 L45.285166,24.6992942 C45.6713755,25.0940861 46.3045022,25.1010435 46.6992942,24.714834 C47.0940861,24.3286245 47.1010435,23.6954978 46.714834,23.3007058 L24.214834,0.300705845 C23.822609,-0.100235282 23.177391,-0.100235282 22.785166,0.300705845 L0.285165974,23.3007058 C-0.101043523,23.6954978 -0.0940860865,24.3286245 0.300705845,24.714834 C0.695497776,25.1010435 1.32862453,25.0940861 1.71483403,24.6992942 L1.71483403,24.6992942 Z" id="Path-117"></path>
                <path d="M6,19 L6,40 C6,42.7913998 8.23845068,45 11,45 L17,45 C17.5522847,45 18,44.557526 18,44 L18,34 C18,33.7684121 18.4526359,33.3224071 19,33 L29,33 C29.5522847,33.3224071 30,32.8799331 30,32 C30,31.7882944 29.5522847,31.3458205 29,31 L19,31 C17.3493993,31.3458205 16,32.6754517 16,34 L16,44 L17,43 L11,43 C9.34228243,43.0234133 8,41.6990307 8,40 L8,19 C8,18.442474 7.55228475,18 7,18 C6.44771525,18 6,18.442474 6,19 L6,19 Z" id="Path-118"></path>
                <path d="M39,25 L39,42 C39,42.5903491 38.5528228,43.0300025 38,43 L31,43 C30.4477153,43.0300025 30,43.4710015 30,44 C30,44.559001 30.4477153,45 31,45 L38,45 C39.6565634,45 41,43.6791668 41,42 L41,25 C41,24.440999 40.5522847,24 40,24 C39.4477153,24 39,24.440999 39,25 L39,25 Z" id="Path-118-Copy"></path>
                <path d="M36,8 L43,8 L42,7 L42,14 C42,14.5522847 42.4477153,15 43,15 C43.5522847,15 44,14.5522847 44,14 L44,7 C44,6.44771525 43.5522847,6 43,6 L36,6 C35.4477153,6 35,6.44771525 35,7 C35,7.55228475 35.4477153,8 36,8 L36,8 Z" id="Path-120"></path>
            </g>
        </g>
    </g>
</svg>