<?xml version="1.0" encoding="UTF-8" standalone="no"?>
<svg width="46px" height="46px" viewBox="0 0 46 46" version="1.1" xmlns="http://www.w3.org/2000/svg" xmlns:xlink="http://www.w3.org/1999/xlink">
    <!-- Generator: Sketch 39 (31667) - http://www.bohemiancoding.com/sketch -->
    <title>BT-004-1@2x</title>
    <desc>Created with Sketch.</desc>
    <defs></defs>
    <g id="扁平彩色" stroke="none" stroke-width="1" fill="none" fill-rule="evenodd">
        <g id="状态栏" transform="translate(-362.000000, -273.000000)">
            <g id="市场" transform="translate(364.000000, 274.000000)">
                <path d="M38.3205081,20 C38.3205081,20 38.3205081,21.3422643 38.3205081,22.9987856 L38.3205081,30.0012144 C38.3205081,31.6573979 37.1573656,33.6715406 35.7212307,34.5006935 L21.8672265,42.4993065 C20.4316853,43.3281166 18.1048067,43.3284594 16.6686719,42.4993065 L2.81466765,34.5006935 C1.37912641,33.6718834 0.215390309,31.6569187 0.215390309,29.9986131 L0.215390309,14.0013869 C0.215390309,12.3437667 1.3785328,10.3284594 2.81466765,9.49930653 L16.6686719,1.50069347 C18.1042131,0.671883352 20.4324408,0.672319523 21.8645626,1.49915543 C21.8645626,1.49915543 27.3983597,4.69409467 31.4635649,7.04114201" id="Polygon-1" stroke="#9B9B9B" stroke-width="2"></path>
                <path d="M5,30 C5,30 5.60449038,29.328344 6.33767274,28.513697 L12.6623273,21.486303 C13.4011035,20.6654405 14.671656,20.6044904 15.486303,21.3376727 L22.513697,27.6623273 C23.3345595,28.4011035 24.5305529,28.2765188 25.1771927,27.3947372 L33.8228073,15.6052627" id="Path-129" stroke="#9B9B9B" stroke-width="2" stroke-linecap="round" stroke-linejoin="round"></path>
                <polygon id="Path-130" fill="#9B9B9B" points="37 11 26 16.4166667 33.7 22.9166667"></polygon>
            </g>
        </g>
    </g>
</svg>