<?xml version="1.0" encoding="UTF-8" standalone="no"?>
<svg width="46px" height="46px" viewBox="0 0 46 46" version="1.1" xmlns="http://www.w3.org/2000/svg" xmlns:xlink="http://www.w3.org/1999/xlink">
    <!-- Generator: Sketch 3.8.3 (29802) - http://www.bohemiancoding.com/sketch -->
    <title>BT-001-2@2x</title>
    <desc>Created with Sketch.</desc>
    <defs></defs>
    <g id="扁平彩色" stroke="none" stroke-width="1" fill="none" fill-rule="evenodd">
        <g id="状态栏" transform="translate(-270.000000, -141.000000)" fill="#108ee9">
            <g id="首页－选中" transform="translate(270.000000, 142.000000)">
                <path d="M1.71483403,24.6992942 L24.214834,1.69929416 L22.785166,1.69929416 L45.285166,24.6992942 C45.6713755,25.0940861 46.3045022,25.1010435 46.6992942,24.714834 C47.0940861,24.3286245 47.1010435,23.6954978 46.714834,23.3007058 L24.214834,0.300705845 C23.822609,-0.100235282 23.177391,-0.100235282 22.785166,0.300705845 L0.285165974,23.3007058 C-0.101043523,23.6954978 -0.0940860865,24.3286245 0.300705845,24.714834 C0.695497776,25.1010435 1.32862453,25.0940861 1.71483403,24.6992942 L1.71483403,24.6992942 Z" id="Path-117-Copy"></path>
                <path d="M6,19.6801758 L6,41.0019703 C6,43.2100212 7.79182182,45 10.0023695,45 L17,45 L17,34.0027601 C17,32.8966663 17.8935426,32 19.0027601,32 L27.9972399,32 C29.1033337,32 30,32.8935426 30,34.0027601 L30,45 L36.9976305,45 C39.2080781,45 41,43.2075447 41,41.0015293 L41,18 L24,1 L6,19.6801758 Z" id="Path-118-Copy-2"></path>
                <path d="M36,8 L43,8 L42,7 L42,14 C42,14.5522847 42.4477153,15 43,15 C43.5522847,15 44,14.5522847 44,14 L44,7 C44,6.44771525 43.5522847,6 43,6 L36,6 C35.4477153,6 35,6.44771525 35,7 C35,7.55228475 35.4477153,8 36,8 L36,8 Z" id="Path-120-Copy"></path>
            </g>
        </g>
    </g>
</svg>