<?xml version="1.0" encoding="UTF-8" standalone="no"?>
<svg width="46px" height="46px" viewBox="0 0 46 46" version="1.1" xmlns="http://www.w3.org/2000/svg" xmlns:xlink="http://www.w3.org/1999/xlink">
    <!-- Generator: Sketch 39 (31667) - http://www.bohemiancoding.com/sketch -->
    <title>BT-004-2@2x</title>
    <desc>Created with Sketch.</desc>
    <defs></defs>
    <g id="扁平彩色" stroke="none" stroke-width="1" fill="none" fill-rule="evenodd">
        <g id="状态栏" transform="translate(-451.000000, -272.000000)">
            <g id="市场选中" transform="translate(454.000000, 272.000000)">
                <path d="M33.0118437,21.2367592 L26.6245335,29.5219195 C25.5518516,30.88065 23.6194205,31.0439202 22.335291,29.8882037 L15.1249723,23.3989168 C14.7184964,23.0330886 14.1127876,23.0747773 13.7646806,23.4925057 L4.26492841,34.6815041 C3.24927747,35.9002853 5.10851938,33.8798992 4.81427424,34.2329934 C4.4515068,34.6683143 3.80452834,34.7271305 3.36920742,34.3643631 C2.93388649,34.0015956 2.87507026,33.3546172 3.2378377,32.9192962 C3.53208284,32.5662021 3.53208284,32.5662021 4.54773378,31.347421 L12.1882441,22.1788086 C13.2832355,20.8648189 15.2280941,20.7309614 16.4977283,21.8736323 L23.7080471,28.3629191 C24.1114768,28.7260059 24.6760655,28.678304 25.0139066,28.250372 L31.4423475,19.9118598 L28,17.005982 L39,11.5893154 L35.7,23.505982 L33.0118437,21.2367592 Z M18.2535315,1.00415896 C19.2140951,0.44957728 20.7765267,0.452493018 21.7320401,1.00415896 L38.2463172,10.5386813 C39.2068809,11.093263 39.9855716,12.4478263 39.9855716,13.5511582 L39.9855716,32.6202029 C39.9855716,33.7293662 39.2018307,35.0810138 38.2463172,35.6326797 L21.7320401,45.1672021 C20.7714765,45.7217838 19.2090449,45.718868 18.2535315,45.1672021 L1.73925434,35.6326797 C0.778690692,35.0780981 -1.24344979e-14,33.7235347 -1.33226763e-14,32.6202029 L-2.39808173e-14,13.5511582 C-2.48689958e-14,12.4419948 0.783740897,11.0903472 1.73925434,10.5386813 L18.2535315,1.00415896 Z" id="Combined-Shape" fill="#108ee9"></path>
                <path d="M39,21 C39,21 39,22.3422643 39,23.9987856 L39,31.0012144 C39,32.6573979 37.8400662,34.6715406 36.3979698,35.5064385 L22.6020302,43.4935615 C21.1649686,44.3255445 18.8400662,44.3284594 17.3979698,43.4935615 L3.6020302,35.5064385 C2.1649686,34.6744555 1,32.6569187 1,30.9986131 L1,15.0013869 C1,13.3437667 2.15993382,11.3284594 3.6020302,10.4935615 L17.3979698,2.50643854 C18.8350314,1.67445551 21.1231206,1.71423448 22.557051,2.56307849 C22.557051,2.56307849 28.1079817,5.7931829 32,8" id="Polygon-1-Copy" stroke="#108ee9" stroke-width="2"></path>
            </g>
        </g>
    </g>
</svg>